<svg xmlns="http://www.w3.org/2000/svg" xmlns:xlink="http://www.w3.org/1999/xlink" contentStyleType="text/css" data-diagram-type="CLASS" height="427px" preserveAspectRatio="none" style="width:972px;height:427px;background:#1B1B1B;" version="1.1" viewBox="0 0 972 427" width="972px" zoomAndPan="magnify"><defs/><g><rect fill="#1B1B1B" height="427" style="stroke:none;stroke-width:1;" width="972" x="0" y="0"/><!--class SystemTraits--><g class="entity" data-entity="SystemTraits" data-source-line="1" data-uid="ent0002" id="entity_SystemTraits"><rect fill="#313139" height="113.1875" rx="2.5" ry="2.5" style="stroke:#E7E7E7;stroke-width:0.5;" width="320.334" x="7" y="10"/><ellipse cx="22" cy="26" fill="#2E5233" rx="11" ry="11" style="stroke:#E7E7E7;stroke-width:1;"/><path d="M24.9688,31.6406 Q24.3906,31.9375 23.75,32.0781 Q23.1094,32.2344 22.4063,32.2344 Q19.9063,32.2344 18.5781,30.5938 Q17.2656,28.9375 17.2656,25.8125 Q17.2656,22.6875 18.5781,21.0313 Q19.9063,19.375 22.4063,19.375 Q23.1094,19.375 23.75,19.5313 Q24.4063,19.6875 24.9688,19.9844 L24.9688,22.7031 Q24.3438,22.125 23.75,21.8594 Q23.1563,21.5781 22.5313,21.5781 Q21.1875,21.5781 20.5,22.6563 Q19.8125,23.7188 19.8125,25.8125 Q19.8125,27.9063 20.5,28.9844 Q21.1875,30.0469 22.5313,30.0469 Q23.1563,30.0469 23.75,29.7813 Q24.3438,29.5 24.9688,28.9219 L24.9688,31.6406 Z " fill="#FFFFFF"/><text fill="#FFFFFF" font-family="sans-serif" font-size="14" lengthAdjust="spacing" textLength="91.7656" x="36" y="30.8467">SystemTraits</text><rect fill="#FFFFFF" height="15.9688" style="stroke:#E7E7E7;stroke-width:1;stroke-dasharray:2.0,2.0;" width="194.5684" x="135.7656" y="7"/><text fill="#000000" font-family="sans-serif" font-size="12" font-style="italic" lengthAdjust="spacing" textLength="192.5684" x="136.7656" y="19.1387">StateDim, InputDim, OutputDim</text><line style="stroke:#E7E7E7;stroke-width:0.5;" x1="8" x2="326.334" y1="42" y2="42"/><ellipse cx="18" cy="55.6484" fill="none" rx="3" ry="3" style="stroke:#038048;stroke-width:1;"/><text fill="#FFFFFF" font-family="sans-serif" font-size="14" lengthAdjust="spacing" textLength="212.8027" x="27" y="58.9951">StateDimension: constexpr int</text><ellipse cx="18" cy="71.9453" fill="none" rx="3" ry="3" style="stroke:#038048;stroke-width:1;"/><text fill="#FFFFFF" font-family="sans-serif" font-size="14" lengthAdjust="spacing" textLength="184.543" x="27" y="75.292">StateVector: Eigen::Matrix</text><ellipse cx="18" cy="88.2422" fill="none" rx="3" ry="3" style="stroke:#038048;stroke-width:1;"/><text fill="#FFFFFF" font-family="sans-serif" font-size="14" lengthAdjust="spacing" textLength="183.7363" x="27" y="91.5889">InputVector: Eigen::Matrix</text><ellipse cx="18" cy="104.5391" fill="none" rx="3" ry="3" style="stroke:#038048;stroke-width:1;"/><text fill="#FFFFFF" font-family="sans-serif" font-size="14" lengthAdjust="spacing" textLength="196.1162" x="27" y="107.8857">OutputVector: Eigen::Matrix</text><line style="stroke:#E7E7E7;stroke-width:0.5;" x1="8" x2="326.334" y1="115.1875" y2="115.1875"/></g><!--class StateSpaceSystem--><g class="entity" data-entity="StateSpaceSystem" data-source-line="8" data-uid="ent0003" id="entity_StateSpaceSystem"><rect fill="#313139" height="96.8906" rx="2.5" ry="2.5" style="stroke:#E7E7E7;stroke-width:0.5;" width="256.4561" x="385.94" y="183.19"/><ellipse cx="400.94" cy="199.19" fill="#2E5233" rx="11" ry="11" style="stroke:#E7E7E7;stroke-width:1;"/><path d="M403.9088,204.8306 Q403.3306,205.1275 402.69,205.2681 Q402.0494,205.4244 401.3463,205.4244 Q398.8463,205.4244 397.5181,203.7838 Q396.2056,202.1275 396.2056,199.0025 Q396.2056,195.8775 397.5181,194.2213 Q398.8463,192.565 401.3463,192.565 Q402.0494,192.565 402.69,192.7213 Q403.3463,192.8775 403.9088,193.1744 L403.9088,195.8931 Q403.2838,195.315 402.69,195.0494 Q402.0963,194.7681 401.4713,194.7681 Q400.1275,194.7681 399.44,195.8463 Q398.7525,196.9088 398.7525,199.0025 Q398.7525,201.0963 399.44,202.1744 Q400.1275,203.2369 401.4713,203.2369 Q402.0963,203.2369 402.69,202.9713 Q403.2838,202.69 403.9088,202.1119 L403.9088,204.8306 Z " fill="#FFFFFF"/><text fill="#FFFFFF" font-family="sans-serif" font-size="14" lengthAdjust="spacing" textLength="131.9268" x="414.94" y="204.0367">StateSpaceSystem</text><rect fill="#FFFFFF" height="15.9688" style="stroke:#E7E7E7;stroke-width:1;stroke-dasharray:2.0,2.0;" width="90.5293" x="554.8668" y="180.19"/><text fill="#000000" font-family="sans-serif" font-size="12" font-style="italic" lengthAdjust="spacing" textLength="88.5293" x="555.8668" y="192.3287">Derived, Traits</text><line style="stroke:#E7E7E7;stroke-width:0.5;" x1="386.94" x2="641.3961" y1="215.19" y2="215.19"/><rect fill="none" height="6" style="stroke:#C82930;stroke-width:1;" width="6" x="393.94" y="225.8384"/><text fill="#FFFFFF" font-family="sans-serif" font-size="14" lengthAdjust="spacing" textLength="172.293" x="405.94" y="232.1851">logger_: Logger&lt;Traits&gt;</text><line style="stroke:#E7E7E7;stroke-width:0.5;" x1="386.94" x2="641.3961" y1="239.4869" y2="239.4869"/><ellipse cx="396.94" cy="253.1353" fill="#84BE84" rx="3" ry="3" style="stroke:#038048;stroke-width:1;"/><text fill="#FFFFFF" font-family="sans-serif" font-size="14" lengthAdjust="spacing" textLength="141.7227" x="405.94" y="256.482">computeDynamics()</text><ellipse cx="396.94" cy="269.4322" fill="#84BE84" rx="3" ry="3" style="stroke:#038048;stroke-width:1;"/><text fill="#FFFFFF" font-family="sans-serif" font-size="14" lengthAdjust="spacing" textLength="197.0732" x="405.94" y="272.7789">computeSystemDerivative()</text></g><!--class SolverBase--><g class="entity" data-entity="SolverBase" data-source-line="14" data-uid="ent0004" id="entity_SolverBase"><rect fill="#313139" height="96.8906" rx="2.5" ry="2.5" style="stroke:#E7E7E7;stroke-width:0.5;" width="213.4561" x="677.44" y="183.19"/><ellipse cx="692.44" cy="199.19" fill="#2E5233" rx="11" ry="11" style="stroke:#E7E7E7;stroke-width:1;"/><path d="M695.4088,204.8306 Q694.8306,205.1275 694.19,205.2681 Q693.5494,205.4244 692.8463,205.4244 Q690.3463,205.4244 689.0181,203.7838 Q687.7056,202.1275 687.7056,199.0025 Q687.7056,195.8775 689.0181,194.2213 Q690.3463,192.565 692.8463,192.565 Q693.5494,192.565 694.19,192.7213 Q694.8463,192.8775 695.4088,193.1744 L695.4088,195.8931 Q694.7838,195.315 694.19,195.0494 Q693.5963,194.7681 692.9713,194.7681 Q691.6275,194.7681 690.94,195.8463 Q690.2525,196.9088 690.2525,199.0025 Q690.2525,201.0963 690.94,202.1744 Q691.6275,203.2369 692.9713,203.2369 Q693.5963,203.2369 694.19,202.9713 Q694.7838,202.69 695.4088,202.1119 L695.4088,204.8306 Z " fill="#FFFFFF"/><text fill="#FFFFFF" font-family="sans-serif" font-size="14" lengthAdjust="spacing" textLength="78.0869" x="706.44" y="204.0367">SolverBase</text><rect fill="#FFFFFF" height="15.9688" style="stroke:#E7E7E7;stroke-width:1;stroke-dasharray:2.0,2.0;" width="101.3691" x="792.5269" y="180.19"/><text fill="#000000" font-family="sans-serif" font-size="12" font-style="italic" lengthAdjust="spacing" textLength="99.3691" x="793.5269" y="192.3287">Derived, System</text><line style="stroke:#E7E7E7;stroke-width:0.5;" x1="678.44" x2="889.8961" y1="215.19" y2="215.19"/><polygon fill="none" points="688.44,223.8384,692.44,227.8384,688.44,231.8384,684.44,227.8384" style="stroke:#B38D22;stroke-width:1;"/><text fill="#FFFFFF" font-family="sans-serif" font-size="14" lengthAdjust="spacing" textLength="108.9648" x="697.44" y="232.1851">stop_condition_</text><line style="stroke:#E7E7E7;stroke-width:0.5;" x1="678.44" x2="889.8961" y1="239.4869" y2="239.4869"/><ellipse cx="688.44" cy="253.1353" fill="#84BE84" rx="3" ry="3" style="stroke:#038048;stroke-width:1;"/><text fill="#FFFFFF" font-family="sans-serif" font-size="14" lengthAdjust="spacing" textLength="41.207" x="697.44" y="256.482">step()</text><ellipse cx="688.44" cy="269.4322" fill="#84BE84" rx="3" ry="3" style="stroke:#038048;stroke-width:1;"/><text fill="#FFFFFF" font-family="sans-serif" font-size="14" lengthAdjust="spacing" textLength="108.4521" x="697.44" y="272.7789">set_max_time()</text></g><!--class RK4Solver--><g class="entity" data-entity="RK4Solver" data-source-line="20" data-uid="ent0005" id="entity_RK4Solver"><rect fill="#313139" height="64.2969" rx="2.5" ry="2.5" style="stroke:#E7E7E7;stroke-width:0.5;" width="104.5107" x="713.91" y="348.22"/><ellipse cx="729.2246" cy="364.22" fill="#2E5233" rx="11" ry="11" style="stroke:#E7E7E7;stroke-width:1;"/><path d="M732.1934,369.8606 Q731.6153,370.1575 730.9746,370.2981 Q730.334,370.4544 729.6309,370.4544 Q727.1309,370.4544 725.8028,368.8138 Q724.4903,367.1575 724.4903,364.0325 Q724.4903,360.9075 725.8028,359.2513 Q727.1309,357.595 729.6309,357.595 Q730.334,357.595 730.9746,357.7513 Q731.6309,357.9075 732.1934,358.2044 L732.1934,360.9231 Q731.5684,360.345 730.9746,360.0794 Q730.3809,359.7981 729.7559,359.7981 Q728.4121,359.7981 727.7246,360.8763 Q727.0371,361.9388 727.0371,364.0325 Q727.0371,366.1263 727.7246,367.2044 Q728.4121,368.2669 729.7559,368.2669 Q730.3809,368.2669 730.9746,368.0013 Q731.5684,367.72 732.1934,367.1419 L732.1934,369.8606 Z " fill="#FFFFFF"/><text fill="#FFFFFF" font-family="sans-serif" font-size="14" lengthAdjust="spacing" textLength="71.8115" x="743.2946" y="369.0667">RK4Solver</text><line style="stroke:#E7E7E7;stroke-width:0.5;" x1="714.91" x2="817.4207" y1="380.22" y2="380.22"/><line style="stroke:#E7E7E7;stroke-width:0.5;" x1="714.91" x2="817.4207" y1="388.22" y2="388.22"/><ellipse cx="724.91" cy="401.8684" fill="#84BE84" rx="3" ry="3" style="stroke:#038048;stroke-width:1;"/><text fill="#FFFFFF" font-family="sans-serif" font-size="14" lengthAdjust="spacing" textLength="78.5107" x="733.91" y="405.2151">step_impl()</text></g><!--class EulerSolver--><g class="entity" data-entity="EulerSolver" data-source-line="24" data-uid="ent0006" id="entity_EulerSolver"><rect fill="#313139" height="64.2969" rx="2.5" ry="2.5" style="stroke:#E7E7E7;stroke-width:0.5;" width="111.9736" x="853.18" y="348.22"/><ellipse cx="868.18" cy="364.22" fill="#2E5233" rx="11" ry="11" style="stroke:#E7E7E7;stroke-width:1;"/><path d="M871.1488,369.8606 Q870.5706,370.1575 869.93,370.2981 Q869.2894,370.4544 868.5863,370.4544 Q866.0863,370.4544 864.7581,368.8138 Q863.4456,367.1575 863.4456,364.0325 Q863.4456,360.9075 864.7581,359.2513 Q866.0863,357.595 868.5863,357.595 Q869.2894,357.595 869.93,357.7513 Q870.5863,357.9075 871.1488,358.2044 L871.1488,360.9231 Q870.5238,360.345 869.93,360.0794 Q869.3363,359.7981 868.7113,359.7981 Q867.3675,359.7981 866.68,360.8763 Q865.9925,361.9388 865.9925,364.0325 Q865.9925,366.1263 866.68,367.2044 Q867.3675,368.2669 868.7113,368.2669 Q869.3363,368.2669 869.93,368.0013 Q870.5238,367.72 871.1488,367.1419 L871.1488,369.8606 Z " fill="#FFFFFF"/><text fill="#FFFFFF" font-family="sans-serif" font-size="14" lengthAdjust="spacing" textLength="79.9736" x="882.18" y="369.0667">EulerSolver</text><line style="stroke:#E7E7E7;stroke-width:0.5;" x1="854.18" x2="964.1536" y1="380.22" y2="380.22"/><line style="stroke:#E7E7E7;stroke-width:0.5;" x1="854.18" x2="964.1536" y1="388.22" y2="388.22"/><ellipse cx="864.18" cy="401.8684" fill="#84BE84" rx="3" ry="3" style="stroke:#038048;stroke-width:1;"/><text fill="#FFFFFF" font-family="sans-serif" font-size="14" lengthAdjust="spacing" textLength="78.5107" x="873.18" y="405.2151">step_impl()</text></g><!--class Simulation--><g class="entity" data-entity="Simulation" data-source-line="28" data-uid="ent0007" id="entity_Simulation"><rect fill="#313139" height="96.8906" rx="2.5" ry="2.5" style="stroke:#E7E7E7;stroke-width:0.5;" width="243.5811" x="472.38" y="18.15"/><ellipse cx="506.694" cy="34.15" fill="#2E5233" rx="11" ry="11" style="stroke:#E7E7E7;stroke-width:1;"/><path d="M509.6627,39.7906 Q509.0846,40.0875 508.444,40.2281 Q507.8033,40.3844 507.1002,40.3844 Q504.6002,40.3844 503.2721,38.7438 Q501.9596,37.0875 501.9596,33.9625 Q501.9596,30.8375 503.2721,29.1813 Q504.6002,27.525 507.1002,27.525 Q507.8033,27.525 508.444,27.6813 Q509.1002,27.8375 509.6627,28.1344 L509.6627,30.8531 Q509.0377,30.275 508.444,30.0094 Q507.8502,29.7281 507.2252,29.7281 Q505.8815,29.7281 505.194,30.8063 Q504.5065,31.8688 504.5065,33.9625 Q504.5065,36.0563 505.194,37.1344 Q505.8815,38.1969 507.2252,38.1969 Q507.8502,38.1969 508.444,37.9313 Q509.0377,37.65 509.6627,37.0719 L509.6627,39.7906 Z " fill="#FFFFFF"/><text fill="#FFFFFF" font-family="sans-serif" font-size="14" lengthAdjust="spacing" textLength="74.5732" x="524.986" y="38.9967">Simulation</text><rect fill="#FFFFFF" height="15.9688" style="stroke:#E7E7E7;stroke-width:1;stroke-dasharray:2.0,2.0;" width="92.0879" x="626.8732" y="15.15"/><text fill="#000000" font-family="sans-serif" font-size="12" font-style="italic" lengthAdjust="spacing" textLength="90.0879" x="627.8732" y="27.2887">System, Solver</text><line style="stroke:#E7E7E7;stroke-width:0.5;" x1="473.38" x2="714.9611" y1="50.15" y2="50.15"/><rect fill="none" height="6" style="stroke:#C82930;stroke-width:1;" width="6" x="480.38" y="60.7984"/><text fill="#FFFFFF" font-family="sans-serif" font-size="14" lengthAdjust="spacing" textLength="217.5811" x="492.38" y="67.1451">system_: shared_ptr&lt;System&gt;</text><rect fill="none" height="6" style="stroke:#C82930;stroke-width:1;" width="6" x="480.38" y="77.0953"/><text fill="#FFFFFF" font-family="sans-serif" font-size="14" lengthAdjust="spacing" textLength="201.1611" x="492.38" y="83.442">solver_: shared_ptr&lt;Solver&gt;</text><line style="stroke:#E7E7E7;stroke-width:0.5;" x1="473.38" x2="714.9611" y1="90.7438" y2="90.7438"/><ellipse cx="483.38" cy="104.3922" fill="#84BE84" rx="3" ry="3" style="stroke:#038048;stroke-width:1;"/><text fill="#FFFFFF" font-family="sans-serif" font-size="14" lengthAdjust="spacing" textLength="34.4258" x="492.38" y="107.7389">run()</text></g><!--class Logger--><g class="entity" data-entity="Logger" data-source-line="34" data-uid="ent0008" id="entity_Logger"><rect fill="#313139" height="80.5938" rx="2.5" ry="2.5" style="stroke:#E7E7E7;stroke-width:0.5;" width="118.416" x="267.96" y="340.08"/><ellipse cx="282.96" cy="356.08" fill="#2E5233" rx="11" ry="11" style="stroke:#E7E7E7;stroke-width:1;"/><path d="M285.9288,361.7206 Q285.3506,362.0175 284.71,362.1581 Q284.0694,362.3144 283.3663,362.3144 Q280.8663,362.3144 279.5381,360.6738 Q278.2256,359.0175 278.2256,355.8925 Q278.2256,352.7675 279.5381,351.1113 Q280.8663,349.455 283.3663,349.455 Q284.0694,349.455 284.71,349.6113 Q285.3663,349.7675 285.9288,350.0644 L285.9288,352.7831 Q285.3038,352.205 284.71,351.9394 Q284.1163,351.6581 283.4913,351.6581 Q282.1475,351.6581 281.46,352.7363 Q280.7725,353.7988 280.7725,355.8925 Q280.7725,357.9863 281.46,359.0644 Q282.1475,360.1269 283.4913,360.1269 Q284.1163,360.1269 284.71,359.8613 Q285.3038,359.58 285.9288,359.0019 L285.9288,361.7206 Z " fill="#FFFFFF"/><text fill="#FFFFFF" font-family="sans-serif" font-size="14" lengthAdjust="spacing" textLength="48.5078" x="296.96" y="360.9267">Logger</text><rect fill="#FFFFFF" height="15.9688" style="stroke:#E7E7E7;stroke-width:1;stroke-dasharray:2.0,2.0;" width="35.9082" x="353.4678" y="337.08"/><text fill="#000000" font-family="sans-serif" font-size="12" font-style="italic" lengthAdjust="spacing" textLength="33.9082" x="354.4678" y="349.2187">Traits</text><line style="stroke:#E7E7E7;stroke-width:0.5;" x1="268.96" x2="385.376" y1="372.08" y2="372.08"/><line style="stroke:#E7E7E7;stroke-width:0.5;" x1="268.96" x2="385.376" y1="380.08" y2="380.08"/><ellipse cx="278.96" cy="393.7284" fill="#84BE84" rx="3" ry="3" style="stroke:#038048;stroke-width:1;"/><text fill="#FFFFFF" font-family="sans-serif" font-size="14" lengthAdjust="spacing" textLength="32.2656" x="287.96" y="397.0751">log()</text><ellipse cx="278.96" cy="410.0253" fill="#84BE84" rx="3" ry="3" style="stroke:#038048;stroke-width:1;"/><text fill="#FFFFFF" font-family="sans-serif" font-size="14" lengthAdjust="spacing" textLength="86.7959" x="287.96" y="413.372">export_csv()</text></g><!--class MassSpringDamperTraits--><g class="entity" data-entity="MassSpringDamperTraits" data-source-line="39" data-uid="ent0009" id="entity_MassSpringDamperTraits"><rect fill="#313139" height="48" rx="2.5" ry="2.5" style="stroke:#E7E7E7;stroke-width:0.5;" width="208.2373" x="63.05" y="207.63"/><ellipse cx="78.05" cy="223.63" fill="#2E5233" rx="11" ry="11" style="stroke:#E7E7E7;stroke-width:1;"/><path d="M81.0188,229.2706 Q80.4406,229.5675 79.8,229.7081 Q79.1594,229.8644 78.4563,229.8644 Q75.9563,229.8644 74.6281,228.2238 Q73.3156,226.5675 73.3156,223.4425 Q73.3156,220.3175 74.6281,218.6613 Q75.9563,217.005 78.4563,217.005 Q79.1594,217.005 79.8,217.1613 Q80.4563,217.3175 81.0188,217.6144 L81.0188,220.3331 Q80.3938,219.755 79.8,219.4894 Q79.2063,219.2081 78.5813,219.2081 Q77.2375,219.2081 76.55,220.2863 Q75.8625,221.3488 75.8625,223.4425 Q75.8625,225.5363 76.55,226.6144 Q77.2375,227.6769 78.5813,227.6769 Q79.2063,227.6769 79.8,227.4113 Q80.3938,227.13 81.0188,226.5519 L81.0188,229.2706 Z " fill="#FFFFFF"/><text fill="#FFFFFF" font-family="sans-serif" font-size="14" lengthAdjust="spacing" textLength="176.2373" x="92.05" y="228.4767">MassSpringDamperTraits</text><line style="stroke:#E7E7E7;stroke-width:0.5;" x1="64.05" x2="270.2873" y1="239.63" y2="239.63"/><line style="stroke:#E7E7E7;stroke-width:0.5;" x1="64.05" x2="270.2873" y1="247.63" y2="247.63"/></g><!--class MassSpringDamperSystem--><g class="entity" data-entity="MassSpringDamperSystem" data-source-line="40" data-uid="ent0011" id="entity_MassSpringDamperSystem"><rect fill="#313139" height="48" rx="2.5" ry="2.5" style="stroke:#E7E7E7;stroke-width:0.5;" width="220.8838" x="421.73" y="356.37"/><ellipse cx="436.73" cy="372.37" fill="#2E5233" rx="11" ry="11" style="stroke:#E7E7E7;stroke-width:1;"/><path d="M439.6988,378.0106 Q439.1206,378.3075 438.48,378.4481 Q437.8394,378.6044 437.1363,378.6044 Q434.6363,378.6044 433.3081,376.9638 Q431.9956,375.3075 431.9956,372.1825 Q431.9956,369.0575 433.3081,367.4013 Q434.6363,365.745 437.1363,365.745 Q437.8394,365.745 438.48,365.9013 Q439.1363,366.0575 439.6988,366.3544 L439.6988,369.0731 Q439.0738,368.495 438.48,368.2294 Q437.8863,367.9481 437.2613,367.9481 Q435.9175,367.9481 435.23,369.0263 Q434.5425,370.0888 434.5425,372.1825 Q434.5425,374.2763 435.23,375.3544 Q435.9175,376.4169 437.2613,376.4169 Q437.8863,376.4169 438.48,376.1513 Q439.0738,375.87 439.6988,375.2919 L439.6988,378.0106 Z " fill="#FFFFFF"/><text fill="#FFFFFF" font-family="sans-serif" font-size="14" lengthAdjust="spacing" textLength="188.8838" x="450.73" y="377.2167">MassSpringDamperSystem</text><line style="stroke:#E7E7E7;stroke-width:0.5;" x1="422.73" x2="641.6138" y1="388.37" y2="388.37"/><line style="stroke:#E7E7E7;stroke-width:0.5;" x1="422.73" x2="641.6138" y1="396.37" y2="396.37"/></g><!--reverse link SystemTraits to MassSpringDamperTraits--><g class="link" data-entity-1="SystemTraits" data-entity-2="MassSpringDamperTraits" data-source-line="39" data-uid="lnk10" id="link_SystemTraits_MassSpringDamperTraits"><path codeLine="39" d="M167.17,141.24 C167.17,170.03 167.17,185.61 167.17,207.45" fill="none" id="SystemTraits-backto-MassSpringDamperTraits" style="stroke:#E7E7E7;stroke-width:1;"/><polygon fill="none" points="167.17,123.24,161.17,141.24,173.17,141.24,167.17,123.24" style="stroke:#E7E7E7;stroke-width:1;"/></g><!--reverse link StateSpaceSystem to MassSpringDamperSystem--><g class="link" data-entity-1="StateSpaceSystem" data-entity-2="MassSpringDamperSystem" data-source-line="40" data-uid="lnk12" id="link_StateSpaceSystem_MassSpringDamperSystem"><path codeLine="40" d="M522.2011,298.1361 C525.3211,323.5761 526.83,335.88 529.32,356.19" fill="none" id="StateSpaceSystem-backto-MassSpringDamperSystem" style="stroke:#E7E7E7;stroke-width:1;"/><polygon fill="none" points="520.01,280.27,516.2458,298.8665,528.1565,297.4058,520.01,280.27" style="stroke:#E7E7E7;stroke-width:1;"/></g><!--reverse link SolverBase to RK4Solver--><g class="link" data-entity-1="SolverBase" data-entity-2="RK4Solver" data-source-line="41" data-uid="lnk13" id="link_SolverBase_RK4Solver"><path codeLine="41" d="M776.1289,298.1361 C773.3989,320.3961 772.42,328.41 770,348.14" fill="none" id="SolverBase-backto-RK4Solver" style="stroke:#E7E7E7;stroke-width:1;"/><polygon fill="none" points="778.32,280.27,770.1735,297.4058,782.0842,298.8665,778.32,280.27" style="stroke:#E7E7E7;stroke-width:1;"/></g><!--reverse link SolverBase to EulerSolver--><g class="link" data-entity-1="SolverBase" data-entity-2="EulerSolver" data-source-line="42" data-uid="lnk14" id="link_SolverBase_EulerSolver"><path codeLine="42" d="M836.4216,293.9731 C855.3816,316.2331 865.76,328.41 882.56,348.14" fill="none" id="SolverBase-backto-EulerSolver" style="stroke:#E7E7E7;stroke-width:1;"/><polygon fill="none" points="824.75,280.27,831.8539,297.8636,840.9893,290.0825,824.75,280.27" style="stroke:#E7E7E7;stroke-width:1;"/></g><!--reverse link Simulation to SolverBase--><g class="link" data-entity-1="Simulation" data-entity-2="SolverBase" data-source-line="43" data-uid="lnk15" id="link_Simulation_SolverBase"><path codeLine="43" d="M658.9982,123.2228 C683.7482,144.4528 703.7,161.58 728.45,182.82" fill="none" id="Simulation-backto-SolverBase" style="stroke:#E7E7E7;stroke-width:1;"/><polygon fill="none" points="649.89,115.41,651.8398,122.3525,658.9982,123.2228,657.0484,116.2803,649.89,115.41" style="stroke:#E7E7E7;stroke-width:1;"/></g><!--reverse link Simulation to StateSpaceSystem--><g class="link" data-entity-1="Simulation" data-entity-2="StateSpaceSystem" data-source-line="44" data-uid="lnk16" id="link_Simulation_StateSpaceSystem"><path codeLine="44" d="M565.5247,125.9634 C555.1047,147.2034 548.13,161.41 537.69,182.69" fill="none" id="Simulation-backto-StateSpaceSystem" style="stroke:#E7E7E7;stroke-width:1;"/><polygon fill="none" points="570.81,115.19,564.5762,118.8149,565.5247,125.9634,571.7585,122.3385,570.81,115.19" style="stroke:#E7E7E7;stroke-width:1;"/></g><!--reverse link StateSpaceSystem to Logger--><g class="link" data-entity-1="StateSpaceSystem" data-entity-2="Logger" data-source-line="45" data-uid="lnk17" id="link_StateSpaceSystem_Logger"><path codeLine="45" d="M443.7502,287.8887 C419.3502,307.0387 401,321.43 377.74,339.69" fill="none" id="StateSpaceSystem-backto-Logger" style="stroke:#E7E7E7;stroke-width:1;"/><polygon fill="none" points="453.19,280.48,446.0005,281.0378,443.7502,287.8887,450.9397,287.331,453.19,280.48" style="stroke:#E7E7E7;stroke-width:1;"/></g><!--SRC=[ZP9DIyD048Rl-HK3NXIRcwSGUf3q85e48rwNPJl4XUm7kvFIelvtjvaqIJyGUzhkFFE-CszMjJ96gFUHqBm7gIcMDKd2Ifi5F5dVKNzwxOYFI_ZA8FtkuOYXZThP0fIpIMJd0sXBS-O35RbGm4etQ8jYBIdetG3q3dy1R7oT-CaonUCVR6el5V8YPOL1Rt6p05vf6beva-Imsbjfj8gtTwVttDvtIqeAGps7rZKD1b70Itye1ztP2AxTOdYK4ITpLflCqpy_EaOaOUHEK4fmkBn9XFCY1RdHb38La_pRymCxd8W9RNoRcaTirRKO_WFMsdIjF9YKFELYsE0uRGwnlqyhnqyPS2CyXO5T7ec-uunWbS4xT7RkUXhUE64ATumbFI0NIAYuvSRvouJoEyzXdPHg7xHjAcay1gvbvs_WEiorRFfQZ8tnNbHcYMPJQE1IQK8lAcUpN0vte3YDNm00]--></g></svg>