<svg xmlns="http://www.w3.org/2000/svg" xmlns:xlink="http://www.w3.org/1999/xlink" contentStyleType="text/css" data-diagram-type="DESCRIPTION" height="662px" preserveAspectRatio="none" style="width:1212px;height:662px;background:#1B1B1B;" version="1.1" viewBox="0 0 1212 662" width="1212px" zoomAndPan="magnify"><title>Component Diagram</title><defs/><g><rect fill="#1B1B1B" height="662" style="stroke:none;stroke-width:1;" width="1212" x="0" y="0"/><text fill="#FFFFFF" font-family="sans-serif" font-size="14" font-weight="bold" lengthAdjust="spacing" textLength="161.9434" x="518.2339" y="22.9951">Component Diagram</text><!--cluster ST--><g class="cluster" data-entity="ST" data-source-line="2" data-uid="ent0002" id="cluster_ST"><rect fill="none" height="113.3" rx="2.5" ry="2.5" style="stroke:#E7E7E7;stroke-width:1;" width="394" x="7" y="204.5969"/><rect fill="none" height="10" style="stroke:#E7E7E7;stroke-width:1;" width="15" x="381" y="209.5969"/><rect fill="none" height="2" style="stroke:#E7E7E7;stroke-width:1;" width="4" x="379" y="211.5969"/><rect fill="none" height="2" style="stroke:#E7E7E7;stroke-width:1;" width="4" x="379" y="215.5969"/><text fill="#FFFFFF" font-family="sans-serif" font-size="14" font-weight="bold" lengthAdjust="spacing" textLength="104.043" x="151.9785" y="230.592">SystemTraits</text></g><!--cluster SSS--><g class="cluster" data-entity="SSS" data-source-line="7" data-uid="ent0005" id="cluster_SSS"><rect fill="none" height="273.59" rx="2.5" ry="2.5" style="stroke:#E7E7E7;stroke-width:1;" width="321" x="359" y="382.8969"/><rect fill="none" height="10" style="stroke:#E7E7E7;stroke-width:1;" width="15" x="660" y="387.8969"/><rect fill="none" height="2" style="stroke:#E7E7E7;stroke-width:1;" width="4" x="658" y="389.8969"/><rect fill="none" height="2" style="stroke:#E7E7E7;stroke-width:1;" width="4" x="658" y="393.8969"/><text fill="#FFFFFF" font-family="sans-serif" font-size="14" font-weight="bold" lengthAdjust="spacing" textLength="148.0732" x="445.4634" y="408.892">StateSpaceSystem</text></g><!--cluster SOLV--><g class="cluster" data-entity="SOLV" data-source-line="13" data-uid="ent0009" id="cluster_SOLV"><rect fill="none" height="273.6" rx="2.5" ry="2.5" style="stroke:#E7E7E7;stroke-width:1;" width="323" x="441" y="44.2969"/><rect fill="none" height="10" style="stroke:#E7E7E7;stroke-width:1;" width="15" x="744" y="49.2969"/><rect fill="none" height="2" style="stroke:#E7E7E7;stroke-width:1;" width="4" x="742" y="51.2969"/><rect fill="none" height="2" style="stroke:#E7E7E7;stroke-width:1;" width="4" x="742" y="55.2969"/><text fill="#FFFFFF" font-family="sans-serif" font-size="14" font-weight="bold" lengthAdjust="spacing" textLength="50.0254" x="577.4873" y="70.292">Solver</text></g><!--cluster SIM--><g class="cluster" data-entity="SIM" data-source-line="19" data-uid="ent0013" id="cluster_SIM"><rect fill="none" height="113.3" rx="2.5" ry="2.5" style="stroke:#E7E7E7;stroke-width:1;" width="380" x="804" y="204.5969"/><rect fill="none" height="10" style="stroke:#E7E7E7;stroke-width:1;" width="15" x="1164" y="209.5969"/><rect fill="none" height="2" style="stroke:#E7E7E7;stroke-width:1;" width="4" x="1162" y="211.5969"/><rect fill="none" height="2" style="stroke:#E7E7E7;stroke-width:1;" width="4" x="1162" y="215.5969"/><text fill="#FFFFFF" font-family="sans-serif" font-size="14" font-weight="bold" lengthAdjust="spacing" textLength="84.7588" x="951.6206" y="230.592">Simulation</text></g><!--cluster LOG--><g class="cluster" data-entity="LOG" data-source-line="24" data-uid="ent0016" id="cluster_LOG"><rect fill="none" height="113.3" rx="2.5" ry="2.5" style="stroke:#E7E7E7;stroke-width:1;" width="370" x="720" y="543.1869"/><rect fill="none" height="10" style="stroke:#E7E7E7;stroke-width:1;" width="15" x="1070" y="548.1869"/><rect fill="none" height="2" style="stroke:#E7E7E7;stroke-width:1;" width="4" x="1068" y="550.1869"/><rect fill="none" height="2" style="stroke:#E7E7E7;stroke-width:1;" width="4" x="1068" y="554.1869"/><text fill="#FFFFFF" font-family="sans-serif" font-size="14" font-weight="bold" lengthAdjust="spacing" textLength="54.9814" x="877.5093" y="569.182">Logger</text></g><!--entity Dimension Config--><g class="entity" data-entity="Dimension Config" data-source-line="3" data-uid="ent0003" id="entity_Dimension Config"><rect fill="#313139" height="46.2969" rx="2.5" ry="2.5" style="stroke:#E7E7E7;stroke-width:0.5;" width="163.7852" x="31.11" y="247.5969"/><rect fill="#313139" height="10" style="stroke:#E7E7E7;stroke-width:0.5;" width="15" x="174.8952" y="252.5969"/><rect fill="#313139" height="2" style="stroke:#E7E7E7;stroke-width:0.5;" width="4" x="172.8952" y="254.5969"/><rect fill="#313139" height="2" style="stroke:#E7E7E7;stroke-width:0.5;" width="4" x="172.8952" y="258.5969"/><text fill="#FFFFFF" font-family="sans-serif" font-size="14" lengthAdjust="spacing" textLength="123.7852" x="46.11" y="280.592">Dimension Config</text></g><!--entity Type Aliases--><g class="entity" data-entity="Type Aliases" data-source-line="4" data-uid="ent0004" id="entity_Type Aliases"><rect fill="#313139" height="46.2969" rx="2.5" ry="2.5" style="stroke:#E7E7E7;stroke-width:0.5;" width="127.9238" x="230.04" y="247.5969"/><rect fill="#313139" height="10" style="stroke:#E7E7E7;stroke-width:0.5;" width="15" x="337.9638" y="252.5969"/><rect fill="#313139" height="2" style="stroke:#E7E7E7;stroke-width:0.5;" width="4" x="335.9638" y="254.5969"/><rect fill="#313139" height="2" style="stroke:#E7E7E7;stroke-width:0.5;" width="4" x="335.9638" y="258.5969"/><text fill="#FFFFFF" font-family="sans-serif" font-size="14" lengthAdjust="spacing" textLength="87.9238" x="245.04" y="280.592">Type Aliases</text></g><!--entity Dynamics--><g class="entity" data-entity="Dynamics" data-source-line="8" data-uid="ent0006" id="entity_Dynamics"><rect fill="#313139" height="46.2969" rx="2.5" ry="2.5" style="stroke:#E7E7E7;stroke-width:0.5;" width="109.0361" x="383.48" y="425.8969"/><rect fill="#313139" height="10" style="stroke:#E7E7E7;stroke-width:0.5;" width="15" x="472.5161" y="430.8969"/><rect fill="#313139" height="2" style="stroke:#E7E7E7;stroke-width:0.5;" width="4" x="470.5161" y="432.8969"/><rect fill="#313139" height="2" style="stroke:#E7E7E7;stroke-width:0.5;" width="4" x="470.5161" y="436.8969"/><text fill="#FFFFFF" font-family="sans-serif" font-size="14" lengthAdjust="spacing" textLength="69.0361" x="398.48" y="458.892">Dynamics</text></g><!--entity Controller--><g class="entity" data-entity="Controller" data-source-line="9" data-uid="ent0007" id="entity_Controller"><rect fill="#313139" height="46.2969" rx="2.5" ry="2.5" style="stroke:#E7E7E7;stroke-width:0.5;" width="109.1729" x="527.41" y="425.8969"/><rect fill="#313139" height="10" style="stroke:#E7E7E7;stroke-width:0.5;" width="15" x="616.5829" y="430.8969"/><rect fill="#313139" height="2" style="stroke:#E7E7E7;stroke-width:0.5;" width="4" x="614.5829" y="432.8969"/><rect fill="#313139" height="2" style="stroke:#E7E7E7;stroke-width:0.5;" width="4" x="614.5829" y="436.8969"/><text fill="#FFFFFF" font-family="sans-serif" font-size="14" lengthAdjust="spacing" textLength="69.1729" x="542.41" y="458.892">Controller</text></g><!--entity Signal Chain--><g class="entity" data-entity="Signal Chain" data-source-line="10" data-uid="ent0008" id="entity_Signal Chain"><rect fill="#313139" height="46.2969" rx="2.5" ry="2.5" style="stroke:#E7E7E7;stroke-width:0.5;" width="127.4453" x="383.28" y="586.1869"/><rect fill="#313139" height="10" style="stroke:#E7E7E7;stroke-width:0.5;" width="15" x="490.7253" y="591.1869"/><rect fill="#313139" height="2" style="stroke:#E7E7E7;stroke-width:0.5;" width="4" x="488.7253" y="593.1869"/><rect fill="#313139" height="2" style="stroke:#E7E7E7;stroke-width:0.5;" width="4" x="488.7253" y="597.1869"/><text fill="#FFFFFF" font-family="sans-serif" font-size="14" lengthAdjust="spacing" textLength="87.4453" x="398.28" y="619.182">Signal Chain</text></g><!--entity SB--><g class="entity" data-entity="SB" data-source-line="14" data-uid="ent0010" id="entity_SB"><rect fill="#313139" height="46.2969" rx="2.5" ry="2.5" style="stroke:#E7E7E7;stroke-width:0.5;" width="118.0869" x="531.96" y="87.2969"/><rect fill="#313139" height="10" style="stroke:#E7E7E7;stroke-width:0.5;" width="15" x="630.0469" y="92.2969"/><rect fill="#313139" height="2" style="stroke:#E7E7E7;stroke-width:0.5;" width="4" x="628.0469" y="94.2969"/><rect fill="#313139" height="2" style="stroke:#E7E7E7;stroke-width:0.5;" width="4" x="628.0469" y="98.2969"/><text fill="#FFFFFF" font-family="sans-serif" font-size="14" lengthAdjust="spacing" textLength="78.0869" x="546.96" y="120.292">SolverBase</text></g><!--entity RK4--><g class="entity" data-entity="RK4" data-source-line="15" data-uid="ent0011" id="entity_RK4"><rect fill="#313139" height="46.2969" rx="2.5" ry="2.5" style="stroke:#E7E7E7;stroke-width:0.5;" width="111.8115" x="465.09" y="247.5969"/><rect fill="#313139" height="10" style="stroke:#E7E7E7;stroke-width:0.5;" width="15" x="556.9015" y="252.5969"/><rect fill="#313139" height="2" style="stroke:#E7E7E7;stroke-width:0.5;" width="4" x="554.9015" y="254.5969"/><rect fill="#313139" height="2" style="stroke:#E7E7E7;stroke-width:0.5;" width="4" x="554.9015" y="258.5969"/><text fill="#FFFFFF" font-family="sans-serif" font-size="14" lengthAdjust="spacing" textLength="71.8115" x="480.09" y="280.592">RK4Solver</text></g><!--entity EUL--><g class="entity" data-entity="EUL" data-source-line="16" data-uid="ent0012" id="entity_EUL"><rect fill="#313139" height="46.2969" rx="2.5" ry="2.5" style="stroke:#E7E7E7;stroke-width:0.5;" width="119.9736" x="612.01" y="247.5969"/><rect fill="#313139" height="10" style="stroke:#E7E7E7;stroke-width:0.5;" width="15" x="711.9836" y="252.5969"/><rect fill="#313139" height="2" style="stroke:#E7E7E7;stroke-width:0.5;" width="4" x="709.9836" y="254.5969"/><rect fill="#313139" height="2" style="stroke:#E7E7E7;stroke-width:0.5;" width="4" x="709.9836" y="258.5969"/><text fill="#FFFFFF" font-family="sans-serif" font-size="14" lengthAdjust="spacing" textLength="79.9736" x="627.01" y="280.592">EulerSolver</text></g><!--entity Time Stepping--><g class="entity" data-entity="Time Stepping" data-source-line="20" data-uid="ent0014" id="entity_Time Stepping"><rect fill="#313139" height="46.2969" rx="2.5" ry="2.5" style="stroke:#E7E7E7;stroke-width:0.5;" width="141.5547" x="828.22" y="247.5969"/><rect fill="#313139" height="10" style="stroke:#E7E7E7;stroke-width:0.5;" width="15" x="949.7747" y="252.5969"/><rect fill="#313139" height="2" style="stroke:#E7E7E7;stroke-width:0.5;" width="4" x="947.7747" y="254.5969"/><rect fill="#313139" height="2" style="stroke:#E7E7E7;stroke-width:0.5;" width="4" x="947.7747" y="258.5969"/><text fill="#FFFFFF" font-family="sans-serif" font-size="14" lengthAdjust="spacing" textLength="101.5547" x="843.22" y="280.592">Time Stepping</text></g><!--entity Orchestration--><g class="entity" data-entity="Orchestration" data-source-line="21" data-uid="ent0015" id="entity_Orchestration"><rect fill="#313139" height="46.2969" rx="2.5" ry="2.5" style="stroke:#E7E7E7;stroke-width:0.5;" width="135.8945" x="1005.05" y="247.5969"/><rect fill="#313139" height="10" style="stroke:#E7E7E7;stroke-width:0.5;" width="15" x="1120.9445" y="252.5969"/><rect fill="#313139" height="2" style="stroke:#E7E7E7;stroke-width:0.5;" width="4" x="1118.9445" y="254.5969"/><rect fill="#313139" height="2" style="stroke:#E7E7E7;stroke-width:0.5;" width="4" x="1118.9445" y="258.5969"/><text fill="#FFFFFF" font-family="sans-serif" font-size="14" lengthAdjust="spacing" textLength="95.8945" x="1020.05" y="280.592">Orchestration</text></g><!--entity Data Recording--><g class="entity" data-entity="Data Recording" data-source-line="25" data-uid="ent0017" id="entity_Data Recording"><rect fill="#313139" height="46.2969" rx="2.5" ry="2.5" style="stroke:#E7E7E7;stroke-width:0.5;" width="148.7734" x="743.61" y="586.1869"/><rect fill="#313139" height="10" style="stroke:#E7E7E7;stroke-width:0.5;" width="15" x="872.3834" y="591.1869"/><rect fill="#313139" height="2" style="stroke:#E7E7E7;stroke-width:0.5;" width="4" x="870.3834" y="593.1869"/><rect fill="#313139" height="2" style="stroke:#E7E7E7;stroke-width:0.5;" width="4" x="870.3834" y="597.1869"/><text fill="#FFFFFF" font-family="sans-serif" font-size="14" lengthAdjust="spacing" textLength="108.7734" x="758.61" y="619.182">Data Recording</text></g><!--entity CSV Export--><g class="entity" data-entity="CSV Export" data-source-line="26" data-uid="ent0018" id="entity_CSV Export"><rect fill="#313139" height="46.2969" rx="2.5" ry="2.5" style="stroke:#E7E7E7;stroke-width:0.5;" width="118.5176" x="927.74" y="586.1869"/><rect fill="#313139" height="10" style="stroke:#E7E7E7;stroke-width:0.5;" width="15" x="1026.2576" y="591.1869"/><rect fill="#313139" height="2" style="stroke:#E7E7E7;stroke-width:0.5;" width="4" x="1024.2576" y="593.1869"/><rect fill="#313139" height="2" style="stroke:#E7E7E7;stroke-width:0.5;" width="4" x="1024.2576" y="597.1869"/><text fill="#FFFFFF" font-family="sans-serif" font-size="14" lengthAdjust="spacing" textLength="78.5176" x="942.74" y="619.182">CSV Export</text></g><!--link ST to SSS--><g class="link" data-entity-1="ST" data-entity-2="SSS" data-source-line="29" data-uid="lnk19" id="link_ST_SSS"><path d="M401.1079,285.1999 C401.1636,285.2849 401.2196,285.3702 401.2759,285.4558 C401.3884,285.627 401.502,285.7993 401.6166,285.9726 C402.0751,286.666 402.5504,287.3763 403.0419,288.1017 C405.008,291.003 407.2353,294.1447 409.6988,297.4006 C419.5525,310.4244 433.185,325.2769 449,333.8969 C529.65,377.8369 585.83,304.2469 653,366.8969 C656.28,369.9556 659.0442,373.4634 661.3695,377.2667 C661.9508,378.2175 662.5047,379.1868 663.0323,380.1721 C663.2961,380.6648 663.5534,381.1615 663.8042,381.6619 C663.9297,381.9121 664.0535,382.1632 664.1757,382.4153 C664.2369,382.5413 661.7139,377.2523 661.7743,377.3787" fill="none" id="ST-to-SSS" style="stroke:#E7E7E7;stroke-width:1;"/><polygon fill="#E7E7E7" points="664.3579,382.794,664.0926,372.9487,662.2049,378.2813,656.8723,376.3935,664.3579,382.794" style="stroke:#E7E7E7;stroke-width:1;"/><text fill="#FFFFFF" font-family="sans-serif" font-size="13" lengthAdjust="spacing" textLength="70.0654" x="643" y="354.9638">Configures</text></g><!--link SSS to LOG--><g class="link" data-entity-1="SSS" data-entity-2="LOG" data-source-line="30" data-uid="lnk20" id="link_SSS_LOG"><path d="M680.0018,450.4861 C680.4329,450.5113 680.8802,450.5376 681.3436,450.5651 C683.1972,450.675 685.3072,450.8032 687.6561,450.9506 C697.052,451.5401 710.2708,452.4361 726.1903,453.6934 C758.0294,456.2081 800.6712,460.1681 845.1375,466.0119 C934.07,477.6994 1030.3,496.9219 1062,527.1869 C1065.2537,530.2931 1068.0128,533.837 1070.3493,537.6671 C1070.9334,538.6246 1071.4911,539.5999 1072.0235,540.5908 C1072.2897,541.0863 1072.5496,541.5856 1072.8033,542.0885 C1072.9302,542.34 1070.4204,537.2019 1070.5442,537.4552" fill="none" id="SSS-to-LOG" style="stroke:#E7E7E7;stroke-width:1;"/><polygon fill="#E7E7E7" points="1073.1793,542.8456,1072.8203,533.0032,1070.9834,538.3536,1065.6331,536.5167,1073.1793,542.8456" style="stroke:#E7E7E7;stroke-width:1;"/><text fill="#FFFFFF" font-family="sans-serif" font-size="13" lengthAdjust="spacing" textLength="65.3936" x="1048" y="515.2538">Logs Data</text></g><!--link SOLV to SIM--><g class="link" data-entity-1="SOLV" data-entity-2="SIM" data-source-line="31" data-uid="lnk21" id="link_SOLV_SIM"><path d="M764.2566,114.4446 C764.5371,114.5449 764.8243,114.6475 765.1181,114.7524 C765.7056,114.9621 766.3196,115.1808 766.9595,115.4081 C768.2393,115.8627 769.6225,116.352 771.1046,116.8735 C774.0688,117.9165 777.4283,119.0884 781.1463,120.37 C796.0181,125.4963 816.625,132.3769 840.6025,139.7794 C888.5575,154.5844 949.995,171.4769 1006,180.5969 C1022.58,183.2969 1144.12,177.8169 1157,188.5969 C1160.44,191.4756 1163.3255,194.847 1165.7403,198.5496 C1166.9477,200.4008 1165.3882,196.9514 1166.3708,198.9481" fill="none" id="SOLV-to-SIM" style="stroke:#E7E7E7;stroke-width:1;"/><polygon fill="#E7E7E7" points="1169.02,204.3315,1168.6351,194.4902,1166.8123,199.8453,1161.4572,198.0225,1169.02,204.3315" style="stroke:#E7E7E7;stroke-width:1;"/><text fill="#FFFFFF" font-family="sans-serif" font-size="13" lengthAdjust="spacing" textLength="52.6157" x="1007" y="176.6638">Used by</text></g><!--link SIM to SOLV--><g class="link" data-entity-1="SIM" data-entity-2="SOLV" data-source-line="33" data-uid="lnk23" id="link_SIM_SOLV"><path d="M1167.5265,204.2141 C1167.4666,204.0865 1167.4064,203.959 1167.3458,203.8318 C1167.1032,203.3228 1166.8548,202.8171 1166.6002,202.3149 C1166.0911,201.3105 1165.5576,200.3203 1164.9987,199.3465 C1162.763,195.4514 1160.12,191.8194 1157,188.5969 C1125.69,156.2469 1026.755,137.0069 934.9975,125.8306 C889.1188,120.2425 845.0344,116.6703 812.0947,114.4833 C795.6248,113.3898 781.9412,112.6425 772.2125,112.1628 C769.7803,112.0428 767.5953,111.9396 765.6757,111.8518 C765.1959,111.8299 770.7265,112.0777 770.2801,112.0577" fill="none" id="SIM-to-SOLV" style="stroke:#E7E7E7;stroke-width:1;"/><polygon fill="#E7E7E7" points="764.2861,111.7889,773.0979,116.1881,769.2811,112.0129,773.4563,108.1961,764.2861,111.7889" style="stroke:#E7E7E7;stroke-width:1;"/><text fill="#FFFFFF" font-family="sans-serif" font-size="13" lengthAdjust="spacing" textLength="59.1602" x="1143" y="176.6638">Executes</text></g><!--link SIM to SSS--><g class="link" data-entity-1="SIM" data-entity-2="SSS" data-source-line="32" data-uid="lnk22" id="link_SIM_SSS"><path d="M1167.9367,318.0065 C1167.8913,318.1072 1167.8457,318.2079 1167.7998,318.3084 C1167.708,318.5094 1167.6151,318.7099 1167.5213,318.9099 C1167.146,319.7099 1166.7543,320.5018 1166.3456,321.2838 C1165.5283,322.8478 1164.6428,324.372 1163.6837,325.8421 C1161.7655,328.7822 1159.5525,331.5056 1157,333.8969 C1116.91,371.4419 997.235,399.8269 886.8037,418.9006 C831.5881,428.4375 778.6834,435.6466 739.1933,440.5089 C719.4482,442.9401 703.0568,444.7846 691.4069,446.04 C688.4944,446.3539 685.8783,446.6309 683.5802,446.8711 C682.4312,446.9912 687.3301,446.4875 686.3428,446.5892" fill="none" id="SIM-to-SSS" style="stroke:#E7E7E7;stroke-width:1;"/><polygon fill="#E7E7E7" points="680.3743,447.2038,689.7367,450.2608,685.348,446.6916,688.9173,442.3029,680.3743,447.2038" style="stroke:#E7E7E7;stroke-width:1;"/><text fill="#FFFFFF" font-family="sans-serif" font-size="13" lengthAdjust="spacing" textLength="58.4111" x="1146" y="354.9638">Manages</text></g><!--reverse link SB to RK4--><g class="link" data-entity-1="SB" data-entity-2="RK4" data-source-line="34" data-uid="lnk24" id="link_SB_RK4"><path d="M573.841,150.2594 C560.541,180.3394 544.28,217.0969 530.94,247.2569" fill="none" id="SB-backto-RK4" style="stroke:#E7E7E7;stroke-width:1;"/><polygon fill="none" points="581.12,133.7969,568.3535,147.8331,579.3285,152.6858,581.12,133.7969" style="stroke:#E7E7E7;stroke-width:1;"/></g><!--reverse link SB to EUL--><g class="link" data-entity-1="SB" data-entity-2="EUL" data-source-line="35" data-uid="lnk25" id="link_SB_EUL"><path d="M610.6329,149.8191 C626.0329,179.8991 645.06,217.0969 660.49,247.2569" fill="none" id="SB-backto-EUL" style="stroke:#E7E7E7;stroke-width:1;"/><polygon fill="none" points="602.43,133.7969,605.2921,152.5534,615.9736,147.0848,602.43,133.7969" style="stroke:#E7E7E7;stroke-width:1;"/></g><!--SRC=[PP7BQiCm44Nt-eeXU- -wCgNGF2Yb3e78oQPaCNKcZa2MZ3GkDMt_lP8VIUfe9LtTEJEwOiMQO66hsXeo34k5fSDA51Tb9blFLEKE5ViPe0UPmxU0iDwNgYBZbJM1O4wgFFHotjO4prgX9tyGl-8VZP59rbXGp-s9KbwGhS5A5Nv01IuxgpMvGP2gDAXXSKPbxjXMVvBhYPjiFo3l3FCmLs-QJmtRjuSRI3XD3QicZ79ZMUsowH2gQZHo2ANlyReUdvQ7j40orRKoOrGRLvp9i-iAfk_9R5aEVRBDooKXP8Gj5TOThvo5tCFggxQEEqZueYHvwd9DXxzf77aHXNWHSIa4leU84rrSNKKODuMTfoDyj2AUhfmr6YmZP5HZKHhQKj5mrEVm-9CaNMpZFkJp1m00]--></g></svg>