<svg xmlns="http://www.w3.org/2000/svg" xmlns:xlink="http://www.w3.org/1999/xlink" contentStyleType="text/css" data-diagram-type="SEQUENCE" height="501px" preserveAspectRatio="none" style="width:678px;height:501px;background:#1B1B1B;" version="1.1" viewBox="0 0 678 501" width="678px" zoomAndPan="magnify"><defs/><g><rect fill="#1B1B1B" height="501" style="stroke:none;stroke-width:1;" width="678" x="0" y="0"/><rect fill="none" height="247.0625" style="stroke:#FFFFFF;stroke-width:1.5;" width="629.3872" x="42.9102" y="127.4297"/><g><title>User</title><rect fill="#000000" fill-opacity="0.00000" height="339.3281" width="8" x="19.9551" y="81.2969"/><line style="stroke:#E7E7E7;stroke-width:0.5;stroke-dasharray:5.0,5.0;" x1="23" x2="23" y1="81.2969" y2="420.625"/></g><g><title>Simulation</title><rect fill="#000000" fill-opacity="0.00000" height="339.3281" width="8" x="93.1968" y="81.2969"/><line style="stroke:#E7E7E7;stroke-width:0.5;stroke-dasharray:5.0,5.0;" x1="96.9102" x2="96.9102" y1="81.2969" y2="420.625"/></g><g><title>Solver</title><rect fill="#000000" fill-opacity="0.00000" height="339.3281" width="8" x="253.3921" y="81.2969"/><line style="stroke:#E7E7E7;stroke-width:0.5;stroke-dasharray:5.0,5.0;" x1="256.394" x2="256.394" y1="81.2969" y2="420.625"/></g><g><title>StateSpaceSystem</title><rect fill="#000000" fill-opacity="0.00000" height="339.3281" width="8" x="481.4438" y="81.2969"/><line style="stroke:#E7E7E7;stroke-width:0.5;stroke-dasharray:5.0,5.0;" x1="484.4805" x2="484.4805" y1="81.2969" y2="420.625"/></g><g><title>Logger</title><rect fill="#000000" fill-opacity="0.00000" height="339.3281" width="8" x="627.0435" y="81.2969"/><line style="stroke:#E7E7E7;stroke-width:0.5;stroke-dasharray:5.0,5.0;" x1="630.7896" x2="630.7896" y1="81.2969" y2="420.625"/></g><g class="participant participant-head" data-participant="User"><text fill="#FFFFFF" font-family="sans-serif" font-size="14" lengthAdjust="spacing" textLength="31.9102" x="5" y="77.9951">User</text><ellipse cx="23.9551" cy="13.5" fill="#222222" rx="8" ry="8" style="stroke:#E7E7E7;stroke-width:0.5;"/><path d="M23.9551,21.5 L23.9551,48.5 M10.9551,29.5 L36.9551,29.5 M23.9551,48.5 L10.9551,63.5 M23.9551,48.5 L36.9551,63.5" fill="none" style="stroke:#E7E7E7;stroke-width:0.5;"/></g><g class="participant participant-tail" data-participant="User"><text fill="#FFFFFF" font-family="sans-serif" font-size="14" lengthAdjust="spacing" textLength="31.9102" x="5" y="432.6201">User</text><ellipse cx="23.9551" cy="444.4219" fill="#222222" rx="8" ry="8" style="stroke:#E7E7E7;stroke-width:0.5;"/><path d="M23.9551,452.4219 L23.9551,479.4219 M10.9551,460.4219 L36.9551,460.4219 M23.9551,479.4219 L10.9551,494.4219 M23.9551,479.4219 L36.9551,494.4219" fill="none" style="stroke:#E7E7E7;stroke-width:0.5;"/></g><g class="participant participant-head" data-participant="Simulation"><rect fill="#222222" height="30.2969" rx="2.5" ry="2.5" style="stroke:#E7E7E7;stroke-width:0.5;" width="88.5732" x="52.9102" y="50"/><text fill="#FFFFFF" font-family="sans-serif" font-size="14" lengthAdjust="spacing" textLength="74.5732" x="59.9102" y="69.9951">Simulation</text></g><g class="participant participant-tail" data-participant="Simulation"><rect fill="#222222" height="30.2969" rx="2.5" ry="2.5" style="stroke:#E7E7E7;stroke-width:0.5;" width="88.5732" x="52.9102" y="419.625"/><text fill="#FFFFFF" font-family="sans-serif" font-size="14" lengthAdjust="spacing" textLength="74.5732" x="59.9102" y="439.6201">Simulation</text></g><g class="participant participant-head" data-participant="Solver"><rect fill="#222222" height="30.2969" rx="2.5" ry="2.5" style="stroke:#E7E7E7;stroke-width:0.5;" width="57.9961" x="228.394" y="50"/><text fill="#FFFFFF" font-family="sans-serif" font-size="14" lengthAdjust="spacing" textLength="43.9961" x="235.394" y="69.9951">Solver</text></g><g class="participant participant-tail" data-participant="Solver"><rect fill="#222222" height="30.2969" rx="2.5" ry="2.5" style="stroke:#E7E7E7;stroke-width:0.5;" width="57.9961" x="228.394" y="419.625"/><text fill="#FFFFFF" font-family="sans-serif" font-size="14" lengthAdjust="spacing" textLength="43.9961" x="235.394" y="439.6201">Solver</text></g><g class="participant participant-head" data-participant="StateSpaceSystem"><rect fill="#222222" height="30.2969" rx="2.5" ry="2.5" style="stroke:#E7E7E7;stroke-width:0.5;" width="145.9268" x="412.4805" y="50"/><text fill="#FFFFFF" font-family="sans-serif" font-size="14" lengthAdjust="spacing" textLength="131.9268" x="419.4805" y="69.9951">StateSpaceSystem</text></g><g class="participant participant-tail" data-participant="StateSpaceSystem"><rect fill="#222222" height="30.2969" rx="2.5" ry="2.5" style="stroke:#E7E7E7;stroke-width:0.5;" width="145.9268" x="412.4805" y="419.625"/><text fill="#FFFFFF" font-family="sans-serif" font-size="14" lengthAdjust="spacing" textLength="131.9268" x="419.4805" y="439.6201">StateSpaceSystem</text></g><g class="participant participant-head" data-participant="Logger"><rect fill="#222222" height="30.2969" rx="2.5" ry="2.5" style="stroke:#E7E7E7;stroke-width:0.5;" width="62.5078" x="599.7896" y="50"/><text fill="#FFFFFF" font-family="sans-serif" font-size="14" lengthAdjust="spacing" textLength="48.5078" x="606.7896" y="69.9951">Logger</text></g><g class="participant participant-tail" data-participant="Logger"><rect fill="#222222" height="30.2969" rx="2.5" ry="2.5" style="stroke:#E7E7E7;stroke-width:0.5;" width="62.5078" x="599.7896" y="419.625"/><text fill="#FFFFFF" font-family="sans-serif" font-size="14" lengthAdjust="spacing" textLength="48.5078" x="606.7896" y="439.6201">Logger</text></g><g class="message" data-participant-1="User" data-participant-2="Simulation"><polygon fill="#E7E7E7" points="85.1968,108.4297,95.1968,112.4297,85.1968,116.4297,89.1968,112.4297" style="stroke:#E7E7E7;stroke-width:1;"/><line style="stroke:#E7E7E7;stroke-width:1;" x1="23.9551" x2="91.1968" y1="112.4297" y2="112.4297"/><text fill="#FFFFFF" font-family="sans-serif" font-size="13" lengthAdjust="spacing" textLength="45.3159" x="30.9551" y="107.3638">run(dt)</text></g><path d="M42.9102,127.4297 L119.5342,127.4297 L119.5342,134.5625 L109.5342,144.5625 L42.9102,144.5625 L42.9102,127.4297" fill="#555555" style="stroke:#FFFFFF;stroke-width:1.5;"/><rect fill="none" height="247.0625" style="stroke:#FFFFFF;stroke-width:1.5;" width="629.3872" x="42.9102" y="127.4297"/><text fill="#FFFFFF" font-family="sans-serif" font-size="13" font-weight="bold" lengthAdjust="spacing" textLength="31.624" x="57.9102" y="140.4966">loop</text><text fill="#FFFFFF" font-family="sans-serif" font-size="11" font-weight="bold" lengthAdjust="spacing" textLength="132.4834" x="134.5342" y="139.6401">[Until stop condition]</text><g class="message" data-participant-1="Simulation" data-participant-2="Solver"><polygon fill="#E7E7E7" points="245.3921,161.6953,255.3921,165.6953,245.3921,169.6953,249.3921,165.6953" style="stroke:#E7E7E7;stroke-width:1;"/><line style="stroke:#E7E7E7;stroke-width:1;" x1="97.1968" x2="251.3921" y1="165.6953" y2="165.6953"/><text fill="#FFFFFF" font-family="sans-serif" font-size="13" lengthAdjust="spacing" textLength="136.1953" x="104.1968" y="160.6294">step(system, t, x, dt)</text></g><g class="message" data-participant-1="Solver" data-participant-2="StateSpaceSystem"><polygon fill="#E7E7E7" points="473.4438,190.8281,483.4438,194.8281,473.4438,198.8281,477.4438,194.8281" style="stroke:#E7E7E7;stroke-width:1;"/><line style="stroke:#E7E7E7;stroke-width:1;" x1="257.3921" x2="479.4438" y1="194.8281" y2="194.8281"/><text fill="#FFFFFF" font-family="sans-serif" font-size="13" lengthAdjust="spacing" textLength="204.0518" x="264.3921" y="189.7622">computeSystemDerivative(t, x)</text></g><g class="message" data-participant-1="StateSpaceSystem" data-participant-2="StateSpaceSystem"><line style="stroke:#E7E7E7;stroke-width:1;" x1="485.4438" x2="527.4438" y1="223.9609" y2="223.9609"/><line style="stroke:#E7E7E7;stroke-width:1;" x1="527.4438" x2="527.4438" y1="223.9609" y2="236.9609"/><line style="stroke:#E7E7E7;stroke-width:1;" x1="486.4438" x2="527.4438" y1="236.9609" y2="236.9609"/><polygon fill="#E7E7E7" points="496.4438,232.9609,486.4438,236.9609,496.4438,240.9609,492.4438,236.9609" style="stroke:#E7E7E7;stroke-width:1;"/><text fill="#FFFFFF" font-family="sans-serif" font-size="13" lengthAdjust="spacing" textLength="131.5996" x="492.4438" y="218.895">computeDynamics()</text></g><g class="message" data-participant-1="StateSpaceSystem" data-participant-2="Logger"><polygon fill="#E7E7E7" points="619.0435,262.0938,629.0435,266.0938,619.0435,270.0938,623.0435,266.0938" style="stroke:#E7E7E7;stroke-width:1;"/><line style="stroke:#E7E7E7;stroke-width:1;" x1="485.4438" x2="625.0435" y1="266.0938" y2="266.0938"/><text fill="#FFFFFF" font-family="sans-serif" font-size="13" lengthAdjust="spacing" textLength="64.3335" x="492.4438" y="261.0278">log(entry)</text></g><g class="message" data-participant-1="StateSpaceSystem" data-participant-2="Solver"><polygon fill="#E7E7E7" points="268.3921,291.2266,258.3921,295.2266,268.3921,299.2266,264.3921,295.2266" style="stroke:#E7E7E7;stroke-width:1;"/><line style="stroke:#E7E7E7;stroke-width:1;stroke-dasharray:2.0,2.0;" x1="262.3921" x2="484.4438" y1="295.2266" y2="295.2266"/><text fill="#FFFFFF" font-family="sans-serif" font-size="13" lengthAdjust="spacing" textLength="78.0698" x="274.3921" y="290.1606">return dx/dt</text></g><g class="message" data-participant-1="Solver" data-participant-2="Simulation"><polygon fill="#E7E7E7" points="108.1968,320.3594,98.1968,324.3594,108.1968,328.3594,104.1968,324.3594" style="stroke:#E7E7E7;stroke-width:1;"/><line style="stroke:#E7E7E7;stroke-width:1;stroke-dasharray:2.0,2.0;" x1="102.1968" x2="256.3921" y1="324.3594" y2="324.3594"/><text fill="#FFFFFF" font-family="sans-serif" font-size="13" lengthAdjust="spacing" textLength="110.6968" x="114.1968" y="319.2935">return new_state</text></g><g class="message" data-participant-1="Simulation" data-participant-2="Simulation"><line style="stroke:#E7E7E7;stroke-width:1;" x1="97.1968" x2="139.1968" y1="353.4922" y2="353.4922"/><line style="stroke:#E7E7E7;stroke-width:1;" x1="139.1968" x2="139.1968" y1="353.4922" y2="366.4922"/><line style="stroke:#E7E7E7;stroke-width:1;" x1="98.1968" x2="139.1968" y1="366.4922" y2="366.4922"/><polygon fill="#E7E7E7" points="108.1968,362.4922,98.1968,366.4922,108.1968,370.4922,104.1968,366.4922" style="stroke:#E7E7E7;stroke-width:1;"/><text fill="#FFFFFF" font-family="sans-serif" font-size="13" lengthAdjust="spacing" textLength="48.4961" x="104.1968" y="348.4263">t += dt</text></g><g class="message" data-participant-1="Simulation" data-participant-2="User"><polygon fill="#E7E7E7" points="34.9551,398.625,24.9551,402.625,34.9551,406.625,30.9551,402.625" style="stroke:#E7E7E7;stroke-width:1;"/><line style="stroke:#E7E7E7;stroke-width:1;stroke-dasharray:2.0,2.0;" x1="28.9551" x2="96.1968" y1="402.625" y2="402.625"/><text fill="#FFFFFF" font-family="sans-serif" font-size="13" lengthAdjust="spacing" textLength="34.2012" x="40.9551" y="397.5591">Done</text></g><!--SRC=[VP4zRyCW48PtViMDL76L7QcTF7QpCaS8JXOIFX2SdVZV5qYasbOJ9ZwUzpaujE6Gu98nYQWJE-EY9eR1JRFNx0BjjuDVZYHhnY5gWyEQ6QVTuKyOnyABweVFxurMGPf9MluGFeG85sBd8NEPca3MjSfGnb-YvLjzLK2CChTw7N07zmwggWKQqk33pLHHJt7cvxB7v9PYNb1MmpDzoBprz2lfoPaiNsSV3L3WmoYHEAslqCtZ4lAS2EpzR7dtf6C37npXxPghxxz-RN26qrVfaa2oOaiLh7wFWZuG_W80]--></g></svg>